<?xml version="1.0" encoding="UTF-8"?>
<svg id="Layer_2" data-name="Layer 2" xmlns="http://www.w3.org/2000/svg" xmlns:xlink="http://www.w3.org/1999/xlink" viewBox="0 0 562.48 195.93">
  <defs>
    <clipPath id="clippath">
      <rect width="562.48" height="37.05" style="fill: none;"/>
    </clipPath>
    <clipPath id="clippath-1">
      <rect y="158.89" width="560.32" height="37.05" style="fill: none;"/>
    </clipPath>
    <clipPath id="clippath-2">
      <rect y="53.54" width="41.06" height="93.99" style="fill: none;"/>
    </clipPath>
    <clipPath id="clippath-3">
      <rect x="511.52" y="53.54" width="41.06" height="93.99" style="fill: none;"/>
    </clipPath>
  </defs>
  <g id="Layer_1-2" data-name="Layer 1">
    <g>
      <g style="clip-path: url(#clippath);">
        <g>
          <path d="M17.73,4.22c1.59-1.73,3.41-3.04,5.76-3.52,7.12-1.45,13.15,5.19,11.07,12.15-.6,2-1.6,3.14-3.02,4.57-4.38,4.42-8.8,8.8-13.22,13.18-.13.1-.36.21-.52.24M17.73,28.42l13.22-13.17c3.07-3.29,2.6-8.59-1.02-11.27-2.95-2.18-6.94-1.92-9.65.51-.62.55-1.31,1.48-1.94,1.94-.3.22-.62.28-.97.15M17.74,4.26c-1.59-1.73-3.41-3.04-5.76-3.52C4.87-.71-1.17,5.93.92,12.89c.6,2,1.6,3.14,3.02,4.57,4.38,4.42,8.8,8.8,13.22,13.18.13.1.36.21.52.24M18.1,6.61c-.35.13-.67.07-.97-.15-.63-.46-1.32-1.39-1.94-1.94-2.71-2.43-6.7-2.69-9.65-.51-3.62,2.68-4.09,7.98-1.02,11.27l13.22,13.17" style="fill: none; stroke: #231f20; stroke-miterlimit: 10;"/>
          <path d="M74.48,4.22c1.59-1.73,3.41-3.04,5.76-3.52,7.12-1.45,13.15,5.19,11.07,12.15-.6,2-1.6,3.14-3.02,4.57-4.38,4.42-8.8,8.8-13.22,13.18-.13.1-.36.21-.52.24M74.48,28.42l13.22-13.17c3.07-3.29,2.6-8.59-1.02-11.27-2.95-2.18-6.94-1.92-9.65.51-.62.55-1.31,1.48-1.94,1.94-.3.22-.62.28-.97.15M74.49,4.26c-1.59-1.73-3.41-3.04-5.76-3.52-7.12-1.45-13.15,5.19-11.07,12.15.6,2,1.6,3.14,3.02,4.57,4.38,4.42,8.8,8.8,13.22,13.18.13.1.36.21.52.24M74.85,6.61c-.35.13-.67.07-.97-.15-.63-.46-1.32-1.39-1.94-1.94-2.71-2.43-6.7-2.69-9.65-.51-3.62,2.68-4.09,7.98-1.02,11.27l13.22,13.17" style="fill: none; stroke: #231f20; stroke-miterlimit: 10;"/>
          <path d="M131.24,4.22c1.59-1.73,3.41-3.04,5.76-3.52,7.12-1.45,13.15,5.19,11.07,12.15-.6,2-1.6,3.14-3.02,4.57-4.38,4.42-8.8,8.8-13.22,13.18-.13.1-.36.21-.52.24M131.24,28.42l13.22-13.17c3.07-3.29,2.6-8.59-1.02-11.27-2.95-2.18-6.94-1.92-9.65.51-.62.55-1.31,1.48-1.94,1.94-.3.22-.62.28-.97.15M131.25,4.26c-1.59-1.73-3.41-3.04-5.76-3.52-7.12-1.45-13.15,5.19-11.07,12.15.6,2,1.6,3.14,3.02,4.57,4.38,4.42,8.8,8.8,13.22,13.18.13.1.36.21.52.24M131.61,6.61c-.35.13-.67.07-.97-.15-.63-.46-1.32-1.39-1.94-1.94-2.71-2.43-6.7-2.69-9.65-.51-3.62,2.68-4.09,7.98-1.02,11.27l13.22,13.17" style="fill: none; stroke: #231f20; stroke-miterlimit: 10;"/>
          <path d="M187.99,4.22c1.59-1.73,3.41-3.04,5.76-3.52,7.12-1.45,13.15,5.19,11.07,12.15-.6,2-1.6,3.14-3.02,4.57-4.38,4.42-8.8,8.8-13.22,13.18-.13.1-.36.21-.52.24M187.99,28.42l13.22-13.17c3.07-3.29,2.6-8.59-1.02-11.27-2.95-2.18-6.94-1.92-9.65.51-.62.55-1.31,1.48-1.94,1.94-.3.22-.62.28-.97.15M188,4.26c-1.59-1.73-3.41-3.04-5.76-3.52-7.12-1.45-13.15,5.19-11.07,12.15.6,2,1.6,3.14,3.02,4.57,4.38,4.42,8.8,8.8,13.22,13.18.13.1.36.21.52.24M188.36,6.61c-.35.13-.67.07-.97-.15-.63-.46-1.32-1.39-1.94-1.94-2.71-2.43-6.7-2.69-9.65-.51-3.62,2.68-4.09,7.98-1.02,11.27l13.22,13.17" style="fill: none; stroke: #231f20; stroke-miterlimit: 10;"/>
          <path d="M244.74,4.22c1.59-1.73,3.41-3.04,5.76-3.52,7.12-1.45,13.15,5.19,11.07,12.15-.6,2-1.6,3.14-3.02,4.57-4.38,4.42-8.8,8.8-13.22,13.18-.13.1-.36.21-.52.24M244.74,28.42l13.22-13.17c3.07-3.29,2.6-8.59-1.02-11.27-2.95-2.18-6.94-1.92-9.65.51-.62.55-1.31,1.48-1.94,1.94-.3.22-.62.28-.97.15M244.75,4.26c-1.59-1.73-3.41-3.04-5.76-3.52-7.12-1.45-13.15,5.19-11.07,12.15.6,2,1.6,3.14,3.02,4.57,4.38,4.42,8.8,8.8,13.22,13.18.13.1.36.21.52.24M245.11,6.61c-.35.13-.67.07-.97-.15-.63-.46-1.32-1.39-1.94-1.94-2.71-2.43-6.7-2.69-9.65-.51-3.62,2.68-4.09,7.98-1.02,11.27l13.22,13.17" style="fill: none; stroke: #231f20; stroke-miterlimit: 10;"/>
          <path d="M301.5,4.22c1.59-1.73,3.41-3.04,5.76-3.52,7.12-1.45,13.15,5.19,11.07,12.15-.6,2-1.6,3.14-3.02,4.57-4.38,4.42-8.8,8.8-13.22,13.18-.13.1-.36.21-.52.24M301.5,28.42l13.22-13.17c3.07-3.29,2.6-8.59-1.02-11.27-2.95-2.18-6.94-1.92-9.65.51-.62.55-1.31,1.48-1.94,1.94-.3.22-.62.28-.97.15M301.51,4.26c-1.59-1.73-3.41-3.04-5.76-3.52-7.12-1.45-13.15,5.19-11.07,12.15.6,2,1.6,3.14,3.02,4.57,4.38,4.42,8.8,8.8,13.22,13.18.13.1.36.21.52.24M301.87,6.61c-.35.13-.67.07-.97-.15-.63-.46-1.32-1.39-1.94-1.94-2.71-2.43-6.7-2.69-9.65-.51-3.62,2.68-4.09,7.98-1.02,11.27l13.22,13.17" style="fill: none; stroke: #231f20; stroke-miterlimit: 10;"/>
          <path d="M358.25,4.22c1.59-1.73,3.41-3.04,5.76-3.52,7.12-1.45,13.15,5.19,11.07,12.15-.6,2-1.6,3.14-3.02,4.57-4.38,4.42-8.8,8.8-13.22,13.18-.13.1-.36.21-.52.24M358.25,28.42l13.22-13.17c3.07-3.29,2.6-8.59-1.02-11.27-2.95-2.18-6.94-1.92-9.65.51-.62.55-1.31,1.48-1.94,1.94-.3.22-.62.28-.97.15M358.26,4.26c-1.59-1.73-3.41-3.04-5.76-3.52-7.12-1.45-13.15,5.19-11.07,12.15.6,2,1.6,3.14,3.02,4.57,4.38,4.42,8.8,8.8,13.22,13.18.13.1.36.21.52.24M358.62,6.61c-.35.13-.67.07-.97-.15-.63-.46-1.32-1.39-1.94-1.94-2.71-2.43-6.7-2.69-9.65-.51-3.62,2.68-4.09,7.98-1.02,11.27l13.22,13.17" style="fill: none; stroke: #231f20; stroke-miterlimit: 10;"/>
          <path d="M415,4.22c1.59-1.73,3.41-3.04,5.76-3.52,7.12-1.45,13.15,5.19,11.07,12.15-.6,2-1.6,3.14-3.02,4.57-4.38,4.42-8.8,8.8-13.22,13.18-.13.1-.36.21-.52.24M415,28.42l13.22-13.17c3.07-3.29,2.6-8.59-1.02-11.27-2.95-2.18-6.94-1.92-9.65.51-.62.55-1.31,1.48-1.94,1.94-.3.22-.62.28-.97.15M415.01,4.26c-1.59-1.73-3.41-3.04-5.76-3.52-7.12-1.45-13.15,5.19-11.07,12.15.6,2,1.6,3.14,3.02,4.57,4.38,4.42,8.8,8.8,13.22,13.18.13.1.36.21.52.24M415.37,6.61c-.35.13-.67.07-.97-.15-.63-.46-1.32-1.39-1.94-1.94-2.71-2.43-6.7-2.69-9.65-.51-3.62,2.68-4.09,7.98-1.02,11.27l13.22,13.17" style="fill: none; stroke: #231f20; stroke-miterlimit: 10;"/>
          <path d="M471.75,4.22c1.59-1.73,3.41-3.04,5.76-3.52,7.12-1.45,13.15,5.19,11.07,12.15-.6,2-1.6,3.14-3.02,4.57-4.38,4.42-8.8,8.8-13.22,13.18-.13.1-.36.21-.52.24M471.75,28.42l13.22-13.17c3.07-3.29,2.6-8.59-1.02-11.27-2.95-2.18-6.94-1.92-9.65.51-.62.55-1.31,1.48-1.94,1.94-.3.22-.62.28-.97.15M471.77,4.26c-1.59-1.73-3.41-3.04-5.76-3.52-7.12-1.45-13.15,5.19-11.07,12.15.6,2,1.6,3.14,3.02,4.57,4.38,4.42,8.8,8.8,13.22,13.18.13.1.36.21.52.24M472.13,6.61c-.35.13-.67.07-.97-.15-.63-.46-1.32-1.39-1.94-1.94-2.71-2.43-6.7-2.69-9.65-.51-3.62,2.68-4.09,7.98-1.02,11.27l13.22,13.17" style="fill: none; stroke: #231f20; stroke-miterlimit: 10;"/>
          <path d="M528.51,4.22c1.59-1.73,3.41-3.04,5.76-3.52,7.12-1.45,13.15,5.19,11.07,12.15-.6,2-1.6,3.14-3.02,4.57-4.38,4.42-8.8,8.8-13.22,13.18-.13.1-.36.21-.52.24M528.51,28.42l13.22-13.17c3.07-3.29,2.6-8.59-1.02-11.27-2.95-2.18-6.94-1.92-9.65.51-.62.55-1.31,1.48-1.94,1.94-.3.22-.62.28-.97.15M528.52,4.26c-1.59-1.73-3.41-3.04-5.76-3.52-7.12-1.45-13.15,5.19-11.07,12.15.6,2,1.6,3.14,3.02,4.57,4.38,4.42,8.8,8.8,13.22,13.18.13.1.36.21.52.24M528.88,6.61c-.35.13-.67.07-.97-.15-.63-.46-1.32-1.39-1.94-1.94-2.71-2.43-6.7-2.69-9.65-.51-3.62,2.68-4.09,7.98-1.02,11.27l13.22,13.17" style="fill: none; stroke: #231f20; stroke-miterlimit: 10;"/>
        </g>
      </g>
      <g style="clip-path: url(#clippath-1);">
        <g>
          <path d="M17.73,163.11c1.59-1.73,3.41-3.04,5.76-3.52,7.12-1.45,13.15,5.19,11.07,12.15-.6,2-1.6,3.14-3.02,4.57-4.38,4.42-8.8,8.8-13.22,13.18-.13.1-.36.21-.52.24M17.73,187.3l13.22-13.17c3.07-3.29,2.6-8.59-1.02-11.27-2.95-2.18-6.94-1.92-9.65.51-.62.55-1.31,1.48-1.94,1.94-.3.22-.62.28-.97.15M17.74,163.14c-1.59-1.73-3.41-3.04-5.76-3.52-7.12-1.45-13.15,5.19-11.07,12.15.6,2,1.6,3.14,3.02,4.57,4.38,4.42,8.8,8.8,13.22,13.18.13.1.36.21.52.24M18.1,165.5c-.35.13-.67.07-.97-.15-.63-.46-1.32-1.39-1.94-1.94-2.71-2.43-6.7-2.69-9.65-.51-3.62,2.68-4.09,7.98-1.02,11.27l13.22,13.17" style="fill: none; stroke: #231f20; stroke-miterlimit: 10;"/>
          <path d="M74.48,163.11c1.59-1.73,3.41-3.04,5.76-3.52,7.12-1.45,13.15,5.19,11.07,12.15-.6,2-1.6,3.14-3.02,4.57-4.38,4.42-8.8,8.8-13.22,13.18-.13.1-.36.21-.52.24M74.48,187.3l13.22-13.17c3.07-3.29,2.6-8.59-1.02-11.27-2.95-2.18-6.94-1.92-9.65.51-.62.55-1.31,1.48-1.94,1.94-.3.22-.62.28-.97.15M74.49,163.14c-1.59-1.73-3.41-3.04-5.76-3.52-7.12-1.45-13.15,5.19-11.07,12.15.6,2,1.6,3.14,3.02,4.57,4.38,4.42,8.8,8.8,13.22,13.18.13.1.36.21.52.24M74.85,165.5c-.35.13-.67.07-.97-.15-.63-.46-1.32-1.39-1.94-1.94-2.71-2.43-6.7-2.69-9.65-.51-3.62,2.68-4.09,7.98-1.02,11.27l13.22,13.17" style="fill: none; stroke: #231f20; stroke-miterlimit: 10;"/>
          <path d="M131.24,163.11c1.59-1.73,3.41-3.04,5.76-3.52,7.12-1.45,13.15,5.19,11.07,12.15-.6,2-1.6,3.14-3.02,4.57-4.38,4.42-8.8,8.8-13.22,13.18-.13.1-.36.21-.52.24M131.24,187.3l13.22-13.17c3.07-3.29,2.6-8.59-1.02-11.27-2.95-2.18-6.94-1.92-9.65.51-.62.55-1.31,1.48-1.94,1.94-.3.22-.62.28-.97.15M131.25,163.14c-1.59-1.73-3.41-3.04-5.76-3.52-7.12-1.45-13.15,5.19-11.07,12.15.6,2,1.6,3.14,3.02,4.57,4.38,4.42,8.8,8.8,13.22,13.18.13.1.36.21.52.24M131.61,165.5c-.35.13-.67.07-.97-.15-.63-.46-1.32-1.39-1.94-1.94-2.71-2.43-6.7-2.69-9.65-.51-3.62,2.68-4.09,7.98-1.02,11.27l13.22,13.17" style="fill: none; stroke: #231f20; stroke-miterlimit: 10;"/>
          <path d="M187.99,163.11c1.59-1.73,3.41-3.04,5.76-3.52,7.12-1.45,13.15,5.19,11.07,12.15-.6,2-1.6,3.14-3.02,4.57-4.38,4.42-8.8,8.8-13.22,13.18-.13.1-.36.21-.52.24M187.99,187.3l13.22-13.17c3.07-3.29,2.6-8.59-1.02-11.27-2.95-2.18-6.94-1.92-9.65.51-.62.55-1.31,1.48-1.94,1.94-.3.22-.62.28-.97.15M188,163.14c-1.59-1.73-3.41-3.04-5.76-3.52-7.12-1.45-13.15,5.19-11.07,12.15.6,2,1.6,3.14,3.02,4.57,4.38,4.42,8.8,8.8,13.22,13.18.13.1.36.21.52.24M188.36,165.5c-.35.13-.67.07-.97-.15-.63-.46-1.32-1.39-1.94-1.94-2.71-2.43-6.7-2.69-9.65-.51-3.62,2.68-4.09,7.98-1.02,11.27l13.22,13.17" style="fill: none; stroke: #231f20; stroke-miterlimit: 10;"/>
          <path d="M244.74,163.11c1.59-1.73,3.41-3.04,5.76-3.52,7.12-1.45,13.15,5.19,11.07,12.15-.6,2-1.6,3.14-3.02,4.57-4.38,4.42-8.8,8.8-13.22,13.18-.13.1-.36.21-.52.24M244.74,187.3l13.22-13.17c3.07-3.29,2.6-8.59-1.02-11.27-2.95-2.18-6.94-1.92-9.65.51-.62.55-1.31,1.48-1.94,1.94-.3.22-.62.28-.97.15M244.75,163.14c-1.59-1.73-3.41-3.04-5.76-3.52-7.12-1.45-13.15,5.19-11.07,12.15.6,2,1.6,3.14,3.02,4.57,4.38,4.42,8.8,8.8,13.22,13.18.13.1.36.21.52.24M245.11,165.5c-.35.13-.67.07-.97-.15-.63-.46-1.32-1.39-1.94-1.94-2.71-2.43-6.7-2.69-9.65-.51-3.62,2.68-4.09,7.98-1.02,11.27l13.22,13.17" style="fill: none; stroke: #231f20; stroke-miterlimit: 10;"/>
          <path d="M301.5,163.11c1.59-1.73,3.41-3.04,5.76-3.52,7.12-1.45,13.15,5.19,11.07,12.15-.6,2-1.6,3.14-3.02,4.57-4.38,4.42-8.8,8.8-13.22,13.18-.13.1-.36.21-.52.24M301.5,187.3l13.22-13.17c3.07-3.29,2.6-8.59-1.02-11.27-2.95-2.18-6.94-1.92-9.65.51-.62.55-1.31,1.48-1.94,1.94-.3.22-.62.28-.97.15M301.51,163.14c-1.59-1.73-3.41-3.04-5.76-3.52-7.12-1.45-13.15,5.19-11.07,12.15.6,2,1.6,3.14,3.02,4.57,4.38,4.42,8.8,8.8,13.22,13.18.13.1.36.21.52.24M301.87,165.5c-.35.13-.67.07-.97-.15-.63-.46-1.32-1.39-1.94-1.94-2.71-2.43-6.7-2.69-9.65-.51-3.62,2.68-4.09,7.98-1.02,11.27l13.22,13.17" style="fill: none; stroke: #231f20; stroke-miterlimit: 10;"/>
          <path d="M358.25,163.11c1.59-1.73,3.41-3.04,5.76-3.52,7.12-1.45,13.15,5.19,11.07,12.15-.6,2-1.6,3.14-3.02,4.57-4.38,4.42-8.8,8.8-13.22,13.18-.13.1-.36.21-.52.24M358.25,187.3l13.22-13.17c3.07-3.29,2.6-8.59-1.02-11.27-2.95-2.18-6.94-1.92-9.65.51-.62.55-1.31,1.48-1.94,1.94-.3.22-.62.28-.97.15M358.26,163.14c-1.59-1.73-3.41-3.04-5.76-3.52-7.12-1.45-13.15,5.19-11.07,12.15.6,2,1.6,3.14,3.02,4.57,4.38,4.42,8.8,8.8,13.22,13.18.13.1.36.21.52.24M358.62,165.5c-.35.13-.67.07-.97-.15-.63-.46-1.32-1.39-1.94-1.94-2.71-2.43-6.7-2.69-9.65-.51-3.62,2.68-4.09,7.98-1.02,11.27l13.22,13.17" style="fill: none; stroke: #231f20; stroke-miterlimit: 10;"/>
          <path d="M415,163.11c1.59-1.73,3.41-3.04,5.76-3.52,7.12-1.45,13.15,5.19,11.07,12.15-.6,2-1.6,3.14-3.02,4.57-4.38,4.42-8.8,8.8-13.22,13.18-.13.1-.36.21-.52.24M415,187.3l13.22-13.17c3.07-3.29,2.6-8.59-1.02-11.27-2.95-2.18-6.94-1.92-9.65.51-.62.55-1.31,1.48-1.94,1.94-.3.22-.62.28-.97.15M415.01,163.14c-1.59-1.73-3.41-3.04-5.76-3.52-7.12-1.45-13.15,5.19-11.07,12.15.6,2,1.6,3.14,3.02,4.57,4.38,4.42,8.8,8.8,13.22,13.18.13.1.36.21.52.24M415.37,165.5c-.35.13-.67.07-.97-.15-.63-.46-1.32-1.39-1.94-1.94-2.71-2.43-6.7-2.69-9.65-.51-3.62,2.68-4.09,7.98-1.02,11.27l13.22,13.17" style="fill: none; stroke: #231f20; stroke-miterlimit: 10;"/>
          <path d="M471.75,163.11c1.59-1.73,3.41-3.04,5.76-3.52,7.12-1.45,13.15,5.19,11.07,12.15-.6,2-1.6,3.14-3.02,4.57-4.38,4.42-8.8,8.8-13.22,13.18-.13.1-.36.21-.52.24M471.75,187.3l13.22-13.17c3.07-3.29,2.6-8.59-1.02-11.27-2.95-2.18-6.94-1.92-9.65.51-.62.55-1.31,1.48-1.94,1.94-.3.22-.62.28-.97.15M471.77,163.14c-1.59-1.73-3.41-3.04-5.76-3.52-7.12-1.45-13.15,5.19-11.07,12.15.6,2,1.6,3.14,3.02,4.57,4.38,4.42,8.8,8.8,13.22,13.18.13.1.36.21.52.24M472.13,165.5c-.35.13-.67.07-.97-.15-.63-.46-1.32-1.39-1.94-1.94-2.71-2.43-6.7-2.69-9.65-.51-3.62,2.68-4.09,7.98-1.02,11.27l13.22,13.17" style="fill: none; stroke: #231f20; stroke-miterlimit: 10;"/>
          <path d="M528.51,163.11c1.59-1.73,3.41-3.04,5.76-3.52,7.12-1.45,13.15,5.19,11.07,12.15-.6,2-1.6,3.14-3.02,4.57-4.38,4.42-8.8,8.8-13.22,13.18-.13.1-.36.21-.52.24M528.51,187.3l13.22-13.17c3.07-3.29,2.6-8.59-1.02-11.27-2.95-2.18-6.94-1.92-9.65.51-.62.55-1.31,1.48-1.94,1.94-.3.22-.62.28-.97.15M528.52,163.14c-1.59-1.73-3.41-3.04-5.76-3.52-7.12-1.45-13.15,5.19-11.07,12.15.6,2,1.6,3.14,3.02,4.57,4.38,4.42,8.8,8.8,13.22,13.18.13.1.36.21.52.24M528.88,165.5c-.35.13-.67.07-.97-.15-.63-.46-1.32-1.39-1.94-1.94-2.71-2.43-6.7-2.69-9.65-.51-3.62,2.68-4.09,7.98-1.02,11.27l13.22,13.17" style="fill: none; stroke: #231f20; stroke-miterlimit: 10;"/>
        </g>
      </g>
      <g style="clip-path: url(#clippath-2);">
        <g>
          <path d="M17.73,57.76c1.59-1.73,3.41-3.04,5.76-3.52,7.12-1.45,13.15,5.19,11.07,12.15-.6,2-1.6,3.14-3.02,4.57-4.38,4.42-8.8,8.8-13.22,13.18-.13.1-.36.21-.52.24M17.73,81.96l13.22-13.17c3.07-3.29,2.6-8.59-1.02-11.27-2.95-2.18-6.94-1.92-9.65.51-.62.55-1.31,1.48-1.94,1.94-.3.22-.62.28-.97.15M17.74,57.8c-1.59-1.73-3.41-3.04-5.76-3.52-7.12-1.45-13.15,5.19-11.07,12.15.6,2,1.6,3.14,3.02,4.57,4.38,4.42,8.8,8.8,13.22,13.18.13.1.36.21.52.24M18.1,60.15c-.35.13-.67.07-.97-.15-.63-.46-1.32-1.39-1.94-1.94-2.71-2.43-6.7-2.69-9.65-.51-3.62,2.68-4.09,7.98-1.02,11.27l13.22,13.17" style="fill: none; stroke: #231f20; stroke-miterlimit: 10;"/>
          <path d="M17.73,110.21c1.59-1.73,3.41-3.04,5.76-3.52,7.12-1.45,13.15,5.19,11.07,12.15-.6,2-1.6,3.14-3.02,4.57-4.38,4.42-8.8,8.8-13.22,13.18-.13.1-.36.21-.52.24M17.73,134.41l13.22-13.17c3.07-3.29,2.6-8.59-1.02-11.27-2.95-2.18-6.94-1.92-9.65.51-.62.55-1.31,1.48-1.94,1.94-.3.22-.62.28-.97.15M17.74,110.25c-1.59-1.73-3.41-3.04-5.76-3.52-7.12-1.45-13.15,5.19-11.07,12.15.6,2,1.6,3.14,3.02,4.57,4.38,4.42,8.8,8.8,13.22,13.18.13.1.36.21.52.24M18.1,112.6c-.35.13-.67.07-.97-.15-.63-.46-1.32-1.39-1.94-1.94-2.71-2.43-6.7-2.69-9.65-.51-3.62,2.68-4.09,7.98-1.02,11.27l13.22,13.17" style="fill: none; stroke: #231f20; stroke-miterlimit: 10;"/>
        </g>
      </g>
      <g style="clip-path: url(#clippath-3);">
        <g>
          <path d="M529.25,57.76c1.59-1.73,3.41-3.04,5.76-3.52,7.12-1.45,13.15,5.19,11.07,12.15-.6,2-1.6,3.14-3.02,4.57-4.38,4.42-8.8,8.8-13.22,13.18-.13.1-.36.21-.52.24M529.25,81.96l13.22-13.17c3.07-3.29,2.6-8.59-1.02-11.27-2.95-2.18-6.94-1.92-9.65.51-.62.55-1.31,1.48-1.94,1.94-.3.22-.62.28-.97.15M529.26,57.8c-1.59-1.73-3.41-3.04-5.76-3.52-7.12-1.45-13.15,5.19-11.07,12.15.6,2,1.6,3.14,3.02,4.57,4.38,4.42,8.8,8.8,13.22,13.18.13.1.36.21.52.24M529.62,60.15c-.35.13-.67.07-.97-.15-.63-.46-1.32-1.39-1.94-1.94-2.71-2.43-6.7-2.69-9.65-.51-3.62,2.68-4.09,7.98-1.02,11.27l13.22,13.17" style="fill: none; stroke: #231f20; stroke-miterlimit: 10;"/>
          <path d="M529.25,110.21c1.59-1.73,3.41-3.04,5.76-3.52,7.12-1.45,13.15,5.19,11.07,12.15-.6,2-1.6,3.14-3.02,4.57-4.38,4.42-8.8,8.8-13.22,13.18-.13.1-.36.21-.52.24M529.25,134.41l13.22-13.17c3.07-3.29,2.6-8.59-1.02-11.27-2.95-2.18-6.94-1.92-9.65.51-.62.55-1.31,1.48-1.94,1.94-.3.22-.62.28-.97.15M529.26,110.25c-1.59-1.73-3.41-3.04-5.76-3.52-7.12-1.45-13.15,5.19-11.07,12.15.6,2,1.6,3.14,3.02,4.57,4.38,4.42,8.8,8.8,13.22,13.18.13.1.36.21.52.24M529.62,112.6c-.35.13-.67.07-.97-.15-.63-.46-1.32-1.39-1.94-1.94-2.71-2.43-6.7-2.69-9.65-.51-3.62,2.68-4.09,7.98-1.02,11.27l13.22,13.17" style="fill: none; stroke: #231f20; stroke-miterlimit: 10;"/>
        </g>
      </g>
    </g>
  </g>
</svg>