<?xml version="1.0" encoding="UTF-8"?>
<svg id="Layer_2" data-name="Layer 2" xmlns="http://www.w3.org/2000/svg" viewBox="0 0 567.67 212.59">
  <g id="Layer_1-2" data-name="Layer 1">
    <g>
      <path d="M30.83,152.57c-.02-.15-.14-.39-.24-.52-4.38-4.42-8.76-8.84-13.18-13.22-1.43-1.42-2.57-2.42-4.57-3.02-6.96-2.08-13.6,3.95-12.15,11.07.48,2.35,1.79,4.17,3.52,5.76M6.57,153c.13-.35.07-.67-.15-.97-.46-.63-1.39-1.32-1.94-1.94-2.43-2.71-2.69-6.7-.51-9.65,2.68-3.62,7.98-4.09,11.27-1.02l13.17,13.22M30.87,152.69c-.02.15-.14.39-.24.52-4.38,4.42-8.76,8.84-13.18,13.22-1.43,1.42-2.57,2.42-4.57,3.02-6.96,2.08-13.6-3.95-12.15-11.07.48-2.35,1.79-4.17,3.52-5.76M28.45,152.62l-13.17,13.22c-3.29,3.07-8.59,2.6-11.27-1.02-2.18-2.95-1.92-6.94.51-9.65.55-.62,1.48-1.31,1.94-1.94.22-.3.28-.62.15-.97" style="fill: none; stroke: #231f20; stroke-miterlimit: 10;"/>
      <path d="M30.83,106.23c-.02-.15-.14-.39-.24-.52-4.38-4.42-8.76-8.84-13.18-13.22-1.43-1.42-2.57-2.42-4.57-3.02-6.96-2.08-13.6,3.95-12.15,11.07.48,2.35,1.79,4.17,3.52,5.76M6.57,106.66c.13-.35.07-.67-.15-.97-.46-.63-1.39-1.32-1.94-1.94-2.43-2.71-2.69-6.7-.51-9.65,2.68-3.62,7.98-4.09,11.27-1.02l13.17,13.22M30.87,106.36c-.02.15-.14.39-.24.52-4.38,4.42-8.76,8.84-13.18,13.22-1.43,1.42-2.57,2.42-4.57,3.02-6.96,2.08-13.6-3.95-12.15-11.07.48-2.35,1.79-4.17,3.52-5.76M28.45,106.29l-13.17,13.22c-3.29,3.07-8.59,2.6-11.27-1.02-2.18-2.95-1.92-6.94.51-9.65.55-.62,1.48-1.31,1.94-1.94.22-.3.28-.62.15-.97" style="fill: none; stroke: #231f20; stroke-miterlimit: 10;"/>
      <path d="M30.83,59.9c-.02-.15-.14-.39-.24-.52-4.38-4.42-8.76-8.84-13.18-13.22-1.43-1.42-2.57-2.42-4.57-3.02-6.96-2.08-13.6,3.95-12.15,11.07.48,2.35,1.79,4.17,3.52,5.76M6.57,60.33c.13-.35.07-.67-.15-.97-.46-.63-1.39-1.32-1.94-1.94-2.43-2.71-2.69-6.7-.51-9.65,2.68-3.62,7.98-4.09,11.27-1.02l13.17,13.22M30.87,60.03c-.02.15-.14.39-.24.52-4.38,4.42-8.76,8.84-13.18,13.22-1.43,1.42-2.57,2.42-4.57,3.02-6.96,2.08-13.6-3.95-12.15-11.07.48-2.35,1.79-4.17,3.52-5.76M28.45,59.96l-13.17,13.22c-3.29,3.07-8.59,2.6-11.27-1.02-2.18-2.95-1.92-6.94.51-9.65.55-.62,1.48-1.31,1.94-1.94.22-.3.28-.62.15-.97" style="fill: none; stroke: #231f20; stroke-miterlimit: 10;"/>
      <path d="M58.73,30.83c.15-.02.39-.14.52-.24,4.42-4.38,8.84-8.76,13.22-13.18,1.42-1.43,2.42-2.57,3.02-4.57,2.08-6.96-3.95-13.6-11.07-12.15-2.35.48-4.17,1.79-5.76,3.52M58.3,6.57c.35.13.67.07.97-.15.63-.46,1.32-1.39,1.94-1.94,2.71-2.43,6.7-2.69,9.65-.51,3.62,2.68,4.09,7.98,1.02,11.27l-13.22,13.17M58.6,30.87c-.15-.02-.39-.14-.52-.24-4.42-4.38-8.84-8.76-13.22-13.18-1.42-1.43-2.42-2.57-3.02-4.57-2.08-6.96,3.95-13.6,11.07-12.15,2.35.48,4.17,1.79,5.76,3.52M58.67,28.45l-13.22-13.17c-3.07-3.29-2.6-8.59,1.02-11.27,2.95-2.18,6.94-1.92,9.65.51.62.55,1.31,1.48,1.94,1.94.3.22.62.28.97.15" style="fill: none; stroke: #231f20; stroke-miterlimit: 10;"/>
      <path d="M103.76,30.83c.15-.02.39-.14.52-.24,4.42-4.38,8.84-8.76,13.22-13.18,1.42-1.43,2.42-2.57,3.02-4.57,2.08-6.96-3.95-13.6-11.07-12.15-2.35.48-4.17,1.79-5.76,3.52M103.33,6.57c.35.13.67.07.97-.15.63-.46,1.32-1.39,1.94-1.94,2.71-2.43,6.7-2.69,9.65-.51,3.62,2.68,4.09,7.98,1.02,11.27l-13.22,13.17M103.63,30.87c-.15-.02-.39-.14-.52-.24-4.42-4.38-8.84-8.76-13.22-13.18-1.42-1.43-2.42-2.57-3.02-4.57-2.08-6.96,3.95-13.6,11.07-12.15,2.35.48,4.17,1.79,5.76,3.52M103.7,28.45l-13.22-13.17c-3.07-3.29-2.6-8.59,1.02-11.27,2.95-2.18,6.94-1.92,9.65.51.62.55,1.31,1.48,1.94,1.94.3.22.62.28.97.15" style="fill: none; stroke: #231f20; stroke-miterlimit: 10;"/>
      <path d="M148.8,30.83c.15-.02.39-.14.52-.24,4.42-4.38,8.84-8.76,13.22-13.18,1.42-1.43,2.42-2.57,3.02-4.57,2.08-6.96-3.95-13.6-11.07-12.15-2.35.48-4.17,1.79-5.76,3.52M148.37,6.57c.35.13.67.07.97-.15.63-.46,1.32-1.39,1.94-1.94,2.71-2.43,6.7-2.69,9.65-.51,3.62,2.68,4.09,7.98,1.02,11.27l-13.22,13.17M148.67,30.87c-.15-.02-.39-.14-.52-.24-4.42-4.38-8.84-8.76-13.22-13.18-1.42-1.43-2.42-2.57-3.02-4.57-2.08-6.96,3.95-13.6,11.07-12.15,2.35.48,4.17,1.79,5.76,3.52M148.74,28.45l-13.22-13.17c-3.07-3.29-2.6-8.59,1.02-11.27,2.95-2.18,6.94-1.92,9.65.51.62.55,1.31,1.48,1.94,1.94.3.22.62.28.97.15" style="fill: none; stroke: #231f20; stroke-miterlimit: 10;"/>
      <path d="M193.83,30.83c.15-.02.39-.14.52-.24,4.42-4.38,8.84-8.76,13.22-13.18,1.42-1.43,2.42-2.57,3.02-4.57,2.08-6.96-3.95-13.6-11.07-12.15-2.35.48-4.17,1.79-5.76,3.52M193.4,6.57c.35.13.67.07.97-.15.63-.46,1.32-1.39,1.94-1.94,2.71-2.43,6.7-2.69,9.65-.51,3.62,2.68,4.09,7.98,1.02,11.27l-13.22,13.17M193.7,30.87c-.15-.02-.39-.14-.52-.24-4.42-4.38-8.84-8.76-13.22-13.18-1.42-1.43-2.42-2.57-3.02-4.57-2.08-6.96,3.95-13.6,11.07-12.15,2.35.48,4.17,1.79,5.76,3.52M193.77,28.45l-13.22-13.17c-3.07-3.29-2.6-8.59,1.02-11.27,2.95-2.18,6.94-1.92,9.65.51.62.55,1.31,1.48,1.94,1.94.3.22.62.28.97.15" style="fill: none; stroke: #231f20; stroke-miterlimit: 10;"/>
      <path d="M238.87,30.83c.15-.02.39-.14.52-.24,4.42-4.38,8.84-8.76,13.22-13.18,1.42-1.43,2.42-2.57,3.02-4.57,2.08-6.96-3.95-13.6-11.07-12.15-2.35.48-4.17,1.79-5.76,3.52M238.44,6.57c.35.13.67.07.97-.15.63-.46,1.32-1.39,1.94-1.94,2.71-2.43,6.7-2.69,9.65-.51,3.62,2.68,4.09,7.98,1.02,11.27l-13.22,13.17M238.74,30.87c-.15-.02-.39-.14-.52-.24-4.42-4.38-8.84-8.76-13.22-13.18-1.42-1.43-2.42-2.57-3.02-4.57-2.08-6.96,3.95-13.6,11.07-12.15,2.35.48,4.17,1.79,5.76,3.52M238.81,28.45l-13.22-13.17c-3.07-3.29-2.6-8.59,1.02-11.27,2.95-2.18,6.94-1.92,9.65.51.62.55,1.31,1.48,1.94,1.94.3.22.62.28.97.15" style="fill: none; stroke: #231f20; stroke-miterlimit: 10;"/>
      <path d="M283.9,30.83c.15-.02.39-.14.52-.24,4.42-4.38,8.84-8.76,13.22-13.18,1.42-1.43,2.42-2.57,3.02-4.57,2.08-6.96-3.95-13.6-11.07-12.15-2.35.48-4.17,1.79-5.76,3.52M283.47,6.57c.35.13.67.07.97-.15.63-.46,1.32-1.39,1.94-1.94,2.71-2.43,6.7-2.69,9.65-.51,3.62,2.68,4.09,7.98,1.02,11.27l-13.22,13.17M283.77,30.87c-.15-.02-.39-.14-.52-.24-4.42-4.38-8.84-8.76-13.22-13.18-1.42-1.43-2.42-2.57-3.02-4.57-2.08-6.96,3.95-13.6,11.07-12.15,2.35.48,4.17,1.79,5.76,3.52M283.84,28.45l-13.22-13.17c-3.07-3.29-2.6-8.59,1.02-11.27,2.95-2.18,6.94-1.92,9.65.51.62.55,1.31,1.48,1.94,1.94.3.22.62.28.97.15" style="fill: none; stroke: #231f20; stroke-miterlimit: 10;"/>
      <path d="M328.93,30.83c.15-.02.39-.14.52-.24,4.42-4.38,8.84-8.76,13.22-13.18,1.42-1.43,2.42-2.57,3.02-4.57,2.08-6.96-3.95-13.6-11.07-12.15-2.35.48-4.17,1.79-5.76,3.52M328.5,6.57c.35.13.67.07.97-.15.63-.46,1.32-1.39,1.94-1.94,2.71-2.43,6.7-2.69,9.65-.51,3.62,2.68,4.09,7.98,1.02,11.27l-13.22,13.17M328.8,30.87c-.15-.02-.39-.14-.52-.24-4.42-4.38-8.84-8.76-13.22-13.18-1.42-1.43-2.42-2.57-3.02-4.57-2.08-6.96,3.95-13.6,11.07-12.15,2.35.48,4.17,1.79,5.76,3.52M328.88,28.45l-13.22-13.17c-3.07-3.29-2.6-8.59,1.02-11.27,2.95-2.18,6.94-1.92,9.65.51.62.55,1.31,1.48,1.94,1.94.3.22.62.28.97.15" style="fill: none; stroke: #231f20; stroke-miterlimit: 10;"/>
      <path d="M373.97,30.83c.15-.02.39-.14.52-.24,4.42-4.38,8.84-8.76,13.22-13.18,1.42-1.43,2.42-2.57,3.02-4.57,2.08-6.96-3.95-13.6-11.07-12.15-2.35.48-4.17,1.79-5.76,3.52M373.54,6.57c.35.13.67.07.97-.15.63-.46,1.32-1.39,1.94-1.94,2.71-2.43,6.7-2.69,9.65-.51,3.62,2.68,4.09,7.98,1.02,11.27l-13.22,13.17M373.84,30.87c-.15-.02-.39-.14-.52-.24-4.42-4.38-8.84-8.76-13.22-13.18-1.42-1.43-2.42-2.57-3.02-4.57-2.08-6.96,3.95-13.6,11.07-12.15,2.35.48,4.17,1.79,5.76,3.52M373.91,28.45l-13.22-13.17c-3.07-3.29-2.6-8.59,1.02-11.27,2.95-2.18,6.94-1.92,9.65.51.62.55,1.31,1.48,1.94,1.94.3.22.62.28.97.15" style="fill: none; stroke: #231f20; stroke-miterlimit: 10;"/>
      <path d="M419,30.83c.15-.02.39-.14.52-.24,4.42-4.38,8.84-8.76,13.22-13.18,1.42-1.43,2.42-2.57,3.02-4.57,2.08-6.96-3.95-13.6-11.07-12.15-2.35.48-4.17,1.79-5.76,3.52M418.57,6.57c.35.13.67.07.97-.15.63-.46,1.32-1.39,1.94-1.94,2.71-2.43,6.7-2.69,9.65-.51,3.62,2.68,4.09,7.98,1.02,11.27l-13.22,13.17M418.87,30.87c-.15-.02-.39-.14-.52-.24-4.42-4.38-8.84-8.76-13.22-13.18-1.42-1.43-2.42-2.57-3.02-4.57-2.08-6.96,3.95-13.6,11.07-12.15,2.35.48,4.17,1.79,5.76,3.52M418.94,28.45l-13.22-13.17c-3.07-3.29-2.6-8.59,1.02-11.27,2.95-2.18,6.94-1.92,9.65.51.62.55,1.31,1.48,1.94,1.94.3.22.62.28.97.15" style="fill: none; stroke: #231f20; stroke-miterlimit: 10;"/>
      <path d="M464.04,30.83c.15-.02.39-.14.52-.24,4.42-4.38,8.84-8.76,13.22-13.18,1.42-1.43,2.42-2.57,3.02-4.57,2.08-6.96-3.95-13.6-11.07-12.15-2.35.48-4.17,1.79-5.76,3.52M463.61,6.57c.35.13.67.07.97-.15.63-.46,1.32-1.39,1.94-1.94,2.71-2.43,6.7-2.69,9.65-.51,3.62,2.68,4.09,7.98,1.02,11.27l-13.22,13.17M463.91,30.87c-.15-.02-.39-.14-.52-.24-4.42-4.38-8.84-8.76-13.22-13.18-1.42-1.43-2.42-2.57-3.02-4.57-2.08-6.96,3.95-13.6,11.07-12.15,2.35.48,4.17,1.79,5.76,3.52M463.98,28.45l-13.22-13.17c-3.07-3.29-2.6-8.59,1.02-11.27,2.95-2.18,6.94-1.92,9.65.51.62.55,1.31,1.48,1.94,1.94.3.22.62.28.97.15" style="fill: none; stroke: #231f20; stroke-miterlimit: 10;"/>
      <path d="M509.07,30.83c.15-.02.39-.14.52-.24,4.42-4.38,8.84-8.76,13.22-13.18,1.42-1.43,2.42-2.57,3.02-4.57,2.08-6.96-3.95-13.6-11.07-12.15-2.35.48-4.17,1.79-5.76,3.52M508.64,6.57c.35.13.67.07.97-.15.63-.46,1.32-1.39,1.94-1.94,2.71-2.43,6.7-2.69,9.65-.51,3.62,2.68,4.09,7.98,1.02,11.27l-13.22,13.17M508.94,30.87c-.15-.02-.39-.14-.52-.24-4.42-4.38-8.84-8.76-13.22-13.18-1.42-1.43-2.42-2.57-3.02-4.57-2.08-6.96,3.95-13.6,11.07-12.15,2.35.48,4.17,1.79,5.76,3.52M509.01,28.45l-13.22-13.17c-3.07-3.29-2.6-8.59,1.02-11.27,2.95-2.18,6.94-1.92,9.65.51.62.55,1.31,1.48,1.94,1.94.3.22.62.28.97.15" style="fill: none; stroke: #231f20; stroke-miterlimit: 10;"/>
      <path d="M536.84,60.03c.02.15.14.39.24.52,4.38,4.42,8.76,8.84,13.18,13.22,1.43,1.42,2.57,2.42,4.57,3.02,6.96,2.08,13.6-3.95,12.15-11.07-.48-2.35-1.79-4.17-3.52-5.76M561.1,59.6c-.13.35-.07.67.15.97.46.63,1.39,1.32,1.94,1.94,2.43,2.71,2.69,6.7.51,9.65-2.68,3.62-7.98,4.09-11.27,1.02l-13.17-13.22M536.8,59.9c.02-.15.14-.39.24-.52,4.38-4.42,8.76-8.84,13.18-13.22,1.43-1.42,2.57-2.42,4.57-3.02,6.96-2.08,13.6,3.95,12.15,11.07-.48,2.35-1.79,4.17-3.52,5.76M539.22,59.97l13.17-13.22c3.29-3.07,8.59-2.6,11.27,1.02,2.18,2.95,1.92,6.94-.51,9.65-.55.62-1.48,1.31-1.94,1.94-.22.3-.28.62-.15.97" style="fill: none; stroke: #231f20; stroke-miterlimit: 10;"/>
      <path d="M536.84,106.36c.02.15.14.39.24.52,4.38,4.42,8.76,8.84,13.18,13.22,1.43,1.42,2.57,2.42,4.57,3.02,6.96,2.08,13.6-3.95,12.15-11.07-.48-2.35-1.79-4.17-3.52-5.76M561.1,105.93c-.13.35-.07.67.15.97.46.63,1.39,1.32,1.94,1.94,2.43,2.71,2.69,6.7.51,9.65-2.68,3.62-7.98,4.09-11.27,1.02l-13.17-13.22M536.8,106.23c.02-.15.14-.39.24-.52,4.38-4.42,8.76-8.84,13.18-13.22,1.43-1.42,2.57-2.42,4.57-3.02,6.96-2.08,13.6,3.95,12.15,11.07-.48,2.35-1.79,4.17-3.52,5.76M539.22,106.3l13.17-13.22c3.29-3.07,8.59-2.6,11.27,1.02,2.18,2.95,1.92,6.94-.51,9.65-.55.62-1.48,1.31-1.94,1.94-.22.3-.28.62-.15.97" style="fill: none; stroke: #231f20; stroke-miterlimit: 10;"/>
      <path d="M536.84,152.69c.02.15.14.39.24.52,4.38,4.42,8.76,8.84,13.18,13.22,1.43,1.42,2.57,2.42,4.57,3.02,6.96,2.08,13.6-3.95,12.15-11.07-.48-2.35-1.79-4.17-3.52-5.76M561.1,152.26c-.13.35-.07.67.15.97.46.63,1.39,1.32,1.94,1.94,2.43,2.71,2.69,6.7.51,9.65-2.68,3.62-7.98,4.09-11.27,1.02l-13.17-13.22M536.8,152.57c.02-.15.14-.39.24-.52,4.38-4.42,8.76-8.84,13.18-13.22,1.43-1.42,2.57-2.42,4.57-3.02,6.96-2.08,13.6,3.95,12.15,11.07-.48,2.35-1.79,4.17-3.52,5.76M539.22,152.64l13.17-13.22c3.29-3.07,8.59-2.6,11.27,1.02,2.18,2.95,1.92,6.94-.51,9.65-.55.62-1.48,1.31-1.94,1.94-.22.3-.28.62-.15.97" style="fill: none; stroke: #231f20; stroke-miterlimit: 10;"/>
      <path d="M508.94,181.76c-.15.02-.39.14-.52.24-4.42,4.38-8.84,8.76-13.22,13.18-1.42,1.43-2.42,2.57-3.02,4.57-2.08,6.96,3.95,13.6,11.07,12.15,2.35-.48,4.17-1.79,5.76-3.52M509.37,206.02c-.35-.13-.67-.07-.97.15-.63.46-1.32,1.39-1.94,1.94-2.71,2.43-6.7,2.69-9.65.51-3.62-2.68-4.09-7.98-1.02-11.27l13.22-13.17M509.07,181.72c.15.02.39.14.52.24,4.42,4.38,8.84,8.76,13.22,13.18,1.42,1.43,2.42,2.57,3.02,4.57,2.08,6.96-3.95,13.6-11.07,12.15-2.35-.48-4.17-1.79-5.76-3.52M509,184.14l13.22,13.17c3.07,3.29,2.6,8.59-1.02,11.27-2.95,2.18-6.94,1.92-9.65-.51-.62-.55-1.31-1.48-1.94-1.94-.3-.22-.62-.28-.97-.15" style="fill: none; stroke: #231f20; stroke-miterlimit: 10;"/>
      <path d="M463.91,181.76c-.15.02-.39.14-.52.24-4.42,4.38-8.84,8.76-13.22,13.18-1.42,1.43-2.42,2.57-3.02,4.57-2.08,6.96,3.95,13.6,11.07,12.15,2.35-.48,4.17-1.79,5.76-3.52M464.34,206.02c-.35-.13-.67-.07-.97.15-.63.46-1.32,1.39-1.94,1.94-2.71,2.43-6.7,2.69-9.65.51-3.62-2.68-4.09-7.98-1.02-11.27l13.22-13.17M464.04,181.72c.15.02.39.14.52.24,4.42,4.38,8.84,8.76,13.22,13.18,1.42,1.43,2.42,2.57,3.02,4.57,2.08,6.96-3.95,13.6-11.07,12.15-2.35-.48-4.17-1.79-5.76-3.52M463.97,184.14l13.22,13.17c3.07,3.29,2.6,8.59-1.02,11.27-2.95,2.18-6.94,1.92-9.65-.51-.62-.55-1.31-1.48-1.94-1.94-.3-.22-.62-.28-.97-.15" style="fill: none; stroke: #231f20; stroke-miterlimit: 10;"/>
      <path d="M418.87,181.76c-.15.02-.39.14-.52.24-4.42,4.38-8.84,8.76-13.22,13.18-1.42,1.43-2.42,2.57-3.02,4.57-2.08,6.96,3.95,13.6,11.07,12.15,2.35-.48,4.17-1.79,5.76-3.52M419.3,206.02c-.35-.13-.67-.07-.97.15-.63.46-1.32,1.39-1.94,1.94-2.71,2.43-6.7,2.69-9.65.51-3.62-2.68-4.09-7.98-1.02-11.27l13.22-13.17M419,181.72c.15.02.39.14.52.24,4.42,4.38,8.84,8.76,13.22,13.18,1.42,1.43,2.42,2.57,3.02,4.57,2.08,6.96-3.95,13.6-11.07,12.15-2.35-.48-4.17-1.79-5.76-3.52M418.93,184.14l13.22,13.17c3.07,3.29,2.6,8.59-1.02,11.27-2.95,2.18-6.94,1.92-9.65-.51-.62-.55-1.31-1.48-1.94-1.94-.3-.22-.62-.28-.97-.15" style="fill: none; stroke: #231f20; stroke-miterlimit: 10;"/>
      <path d="M373.84,181.76c-.15.02-.39.14-.52.24-4.42,4.38-8.84,8.76-13.22,13.18-1.42,1.43-2.42,2.57-3.02,4.57-2.08,6.96,3.95,13.6,11.07,12.15,2.35-.48,4.17-1.79,5.76-3.52M374.27,206.02c-.35-.13-.67-.07-.97.15-.63.46-1.32,1.39-1.94,1.94-2.71,2.43-6.7,2.69-9.65.51-3.62-2.68-4.09-7.98-1.02-11.27l13.22-13.17M373.97,181.72c.15.02.39.14.52.24,4.42,4.38,8.84,8.76,13.22,13.18,1.42,1.43,2.42,2.57,3.02,4.57,2.08,6.96-3.95,13.6-11.07,12.15-2.35-.48-4.17-1.79-5.76-3.52M373.9,184.14l13.22,13.17c3.07,3.29,2.6,8.59-1.02,11.27-2.95,2.18-6.94,1.92-9.65-.51-.62-.55-1.31-1.48-1.94-1.94-.3-.22-.62-.28-.97-.15" style="fill: none; stroke: #231f20; stroke-miterlimit: 10;"/>
      <path d="M328.8,181.76c-.15.02-.39.14-.52.24-4.42,4.38-8.84,8.76-13.22,13.18-1.42,1.43-2.42,2.57-3.02,4.57-2.08,6.96,3.95,13.6,11.07,12.15,2.35-.48,4.17-1.79,5.76-3.52M329.24,206.02c-.35-.13-.67-.07-.97.15-.63.46-1.32,1.39-1.94,1.94-2.71,2.43-6.7,2.69-9.65.51-3.62-2.68-4.09-7.98-1.02-11.27l13.22-13.17M328.93,181.72c.15.02.39.14.52.24,4.42,4.38,8.84,8.76,13.22,13.18,1.42,1.43,2.42,2.57,3.02,4.57,2.08,6.96-3.95,13.6-11.07,12.15-2.35-.48-4.17-1.79-5.76-3.52M328.86,184.14l13.22,13.17c3.07,3.29,2.6,8.59-1.02,11.27-2.95,2.18-6.94,1.92-9.65-.51-.62-.55-1.31-1.48-1.94-1.94-.3-.22-.62-.28-.97-.15" style="fill: none; stroke: #231f20; stroke-miterlimit: 10;"/>
      <path d="M283.77,181.76c-.15.02-.39.14-.52.24-4.42,4.38-8.84,8.76-13.22,13.18-1.42,1.43-2.42,2.57-3.02,4.57-2.08,6.96,3.95,13.6,11.07,12.15,2.35-.48,4.17-1.79,5.76-3.52M284.2,206.02c-.35-.13-.67-.07-.97.15-.63.46-1.32,1.39-1.94,1.94-2.71,2.43-6.7,2.69-9.65.51-3.62-2.68-4.09-7.98-1.02-11.27l13.22-13.17M283.9,181.72c.15.02.39.14.52.24,4.42,4.38,8.84,8.76,13.22,13.18,1.42,1.43,2.42,2.57,3.02,4.57,2.08,6.96-3.95,13.6-11.07,12.15-2.35-.48-4.17-1.79-5.76-3.52M283.83,184.14l13.22,13.17c3.07,3.29,2.6,8.59-1.02,11.27-2.95,2.18-6.94,1.92-9.65-.51-.62-.55-1.31-1.48-1.94-1.94-.3-.22-.62-.28-.97-.15" style="fill: none; stroke: #231f20; stroke-miterlimit: 10;"/>
      <path d="M238.74,181.76c-.15.02-.39.14-.52.24-4.42,4.38-8.84,8.76-13.22,13.18-1.42,1.43-2.42,2.57-3.02,4.57-2.08,6.96,3.95,13.6,11.07,12.15,2.35-.48,4.17-1.79,5.76-3.52M239.17,206.02c-.35-.13-.67-.07-.97.15-.63.46-1.32,1.39-1.94,1.94-2.71,2.43-6.7,2.69-9.65.51-3.62-2.68-4.09-7.98-1.02-11.27l13.22-13.17M238.87,181.72c.15.02.39.14.52.24,4.42,4.38,8.84,8.76,13.22,13.18,1.42,1.43,2.42,2.57,3.02,4.57,2.08,6.96-3.95,13.6-11.07,12.15-2.35-.48-4.17-1.79-5.76-3.52M238.79,184.14l13.22,13.17c3.07,3.29,2.6,8.59-1.02,11.27-2.95,2.18-6.94,1.92-9.65-.51-.62-.55-1.31-1.48-1.94-1.94-.3-.22-.62-.28-.97-.15" style="fill: none; stroke: #231f20; stroke-miterlimit: 10;"/>
      <path d="M193.7,181.76c-.15.02-.39.14-.52.24-4.42,4.38-8.84,8.76-13.22,13.18-1.42,1.43-2.42,2.57-3.02,4.57-2.08,6.96,3.95,13.6,11.07,12.15,2.35-.48,4.17-1.79,5.76-3.52M194.13,206.02c-.35-.13-.67-.07-.97.15-.63.46-1.32,1.39-1.94,1.94-2.71,2.43-6.7,2.69-9.65.51-3.62-2.68-4.09-7.98-1.02-11.27l13.22-13.17M193.83,181.72c.15.02.39.14.52.24,4.42,4.38,8.84,8.76,13.22,13.18,1.42,1.43,2.42,2.57,3.02,4.57,2.08,6.96-3.95,13.6-11.07,12.15-2.35-.48-4.17-1.79-5.76-3.52M193.76,184.14l13.22,13.17c3.07,3.29,2.6,8.59-1.02,11.27-2.95,2.18-6.94,1.92-9.65-.51-.62-.55-1.31-1.48-1.94-1.94-.3-.22-.62-.28-.97-.15" style="fill: none; stroke: #231f20; stroke-miterlimit: 10;"/>
      <path d="M148.67,181.76c-.15.02-.39.14-.52.24-4.42,4.38-8.84,8.76-13.22,13.18-1.42,1.43-2.42,2.57-3.02,4.57-2.08,6.96,3.95,13.6,11.07,12.15,2.35-.48,4.17-1.79,5.76-3.52M149.1,206.02c-.35-.13-.67-.07-.97.15-.63.46-1.32,1.39-1.94,1.94-2.71,2.43-6.7,2.69-9.65.51-3.62-2.68-4.09-7.98-1.02-11.27l13.22-13.17M148.8,181.72c.15.02.39.14.52.24,4.42,4.38,8.84,8.76,13.22,13.18,1.42,1.43,2.42,2.57,3.02,4.57,2.08,6.96-3.95,13.6-11.07,12.15-2.35-.48-4.17-1.79-5.76-3.52M148.73,184.14l13.22,13.17c3.07,3.29,2.6,8.59-1.02,11.27-2.95,2.18-6.94,1.92-9.65-.51-.62-.55-1.31-1.48-1.94-1.94-.3-.22-.62-.28-.97-.15" style="fill: none; stroke: #231f20; stroke-miterlimit: 10;"/>
      <path d="M103.63,181.76c-.15.02-.39.14-.52.24-4.42,4.38-8.84,8.76-13.22,13.18-1.42,1.43-2.42,2.57-3.02,4.57-2.08,6.96,3.95,13.6,11.07,12.15,2.35-.48,4.17-1.79,5.76-3.52M104.06,206.02c-.35-.13-.67-.07-.97.15-.63.46-1.32,1.39-1.94,1.94-2.71,2.43-6.7,2.69-9.65.51-3.62-2.68-4.09-7.98-1.02-11.27l13.22-13.17M103.76,181.72c.15.02.39.14.52.24,4.42,4.38,8.84,8.76,13.22,13.18,1.42,1.43,2.42,2.57,3.02,4.57,2.08,6.96-3.95,13.6-11.07,12.15-2.35-.48-4.17-1.79-5.76-3.52M103.69,184.14l13.22,13.17c3.07,3.29,2.6,8.59-1.02,11.27-2.95,2.18-6.94,1.92-9.65-.51-.62-.55-1.31-1.48-1.94-1.94-.3-.22-.62-.28-.97-.15" style="fill: none; stroke: #231f20; stroke-miterlimit: 10;"/>
      <path d="M58.6,181.76c-.15.02-.39.14-.52.24-4.42,4.38-8.84,8.76-13.22,13.18-1.42,1.43-2.42,2.57-3.02,4.57-2.08,6.96,3.95,13.6,11.07,12.15,2.35-.48,4.17-1.79,5.76-3.52M59.03,206.02c-.35-.13-.67-.07-.97.15-.63.46-1.32,1.39-1.94,1.94-2.71,2.43-6.7,2.69-9.65.51-3.62-2.68-4.09-7.98-1.02-11.27l13.22-13.17M58.73,181.72c.15.02.39.14.52.24,4.42,4.38,8.84,8.76,13.22,13.18,1.42,1.43,2.42,2.57,3.02,4.57,2.08,6.96-3.95,13.6-11.07,12.15-2.35-.48-4.17-1.79-5.76-3.52M58.66,184.14l13.22,13.17c3.07,3.29,2.6,8.59-1.02,11.27-2.95,2.18-6.94,1.92-9.65-.51-.62-.55-1.31-1.48-1.94-1.94-.3-.22-.62-.28-.97-.15" style="fill: none; stroke: #231f20; stroke-miterlimit: 10;"/>
    </g>
  </g>
</svg>