<?xml version="1.0" encoding="UTF-8"?>
<svg id="Layer_2" data-name="Layer 2" xmlns="http://www.w3.org/2000/svg" viewBox="0 0 544.76 184.44">
  <g id="Layer_1-2" data-name="Layer 1">
    <polygon points="54.73 136.57 98.06 151.75 91.84 161.42 182.1 182.92 118.26 151.53 124.75 141.44 87.41 129.31 93.9 119.21 4.23 94.21 61.99 125.29 54.73 136.57" style="fill: none; stroke: #231f20; stroke-miterlimit: 10;"/>
    <polygon points="131.59 44.05 88.27 59.23 94.48 68.9 4.23 90.4 68.07 59.02 61.57 48.92 98.92 36.79 92.43 26.69 182.1 1.69 124.34 32.77 131.59 44.05" style="fill: none; stroke: #231f20; stroke-miterlimit: 10;"/>
    <polygon points="490.02 136.57 446.7 151.75 452.92 161.42 362.66 182.92 426.5 151.53 420.01 141.44 457.35 129.31 450.86 119.21 540.53 94.21 482.77 125.29 490.02 136.57" style="fill: none; stroke: #231f20; stroke-miterlimit: 10;"/>
    <polygon points="413.17 44.05 456.49 59.23 450.28 68.9 540.53 90.4 476.69 59.02 483.19 48.92 445.84 36.79 452.33 26.69 362.66 1.69 420.42 32.77 413.17 44.05" style="fill: none; stroke: #231f20; stroke-miterlimit: 10;"/>
  </g>
</svg>