<?xml version="1.0" encoding="UTF-8"?>
<svg id="Layer_2" data-name="Layer 2" xmlns="http://www.w3.org/2000/svg" viewBox="0 0 578.67 217">
  <g id="Layer_1-2" data-name="Layer 1">
    <rect x=".68" y=".5" width="576" height="216" style="fill: none; stroke: #231f20; stroke-miterlimit: 10;"/>
    <g>
      <polygon points="161.81 52.57 108.24 70.36 115.78 82.12 4.32 106.95 83.36 69.85 75.49 57.57 121.65 43.38 113.78 31.1 224.57 2.03 153.02 38.85 161.81 52.57" style="fill: none; stroke: #231f20; stroke-miterlimit: 10;"/>
      <polygon points="67.08 160.58 120.64 178.37 113.11 190.13 224.57 214.96 145.53 177.86 153.39 165.58 107.24 151.39 115.1 139.11 4.32 110.04 75.87 146.86 67.08 160.58" style="fill: none; stroke: #231f20; stroke-miterlimit: 10;"/>
    </g>
    <g>
      <polygon points="416.86 52.57 470.43 70.36 462.89 82.12 574.35 106.95 495.31 69.85 503.18 57.57 457.02 43.38 464.89 31.1 354.1 2.03 425.65 38.85 416.86 52.57" style="fill: none; stroke: #231f20; stroke-miterlimit: 10;"/>
      <polygon points="511.59 160.58 458.03 178.37 465.56 190.13 354.1 214.96 433.14 177.86 425.28 165.58 471.43 151.39 463.57 139.11 574.35 110.04 502.8 146.86 511.59 160.58" style="fill: none; stroke: #231f20; stroke-miterlimit: 10;"/>
    </g>
  </g>
</svg>