<?xml version="1.0" encoding="UTF-8"?>
<svg id="Layer_2" data-name="Layer 2" xmlns="http://www.w3.org/2000/svg" viewBox="0 0 578.67 216.04">
  <g id="Layer_1-2" data-name="Layer 1">
    <g>
      <polygon points="161.81 52.18 108.24 69.97 115.78 81.73 4.32 106.55 83.36 69.45 75.49 57.17 121.65 42.99 113.78 30.71 224.57 1.64 153.02 38.46 161.81 52.18" style="fill: none; stroke: #231f20; stroke-miterlimit: 10;"/>
      <polygon points="67.08 160.18 120.64 177.98 113.11 189.73 224.57 214.56 145.53 177.46 153.39 165.18 107.24 151 115.1 138.72 4.32 109.65 75.87 146.47 67.08 160.18" style="fill: none; stroke: #231f20; stroke-miterlimit: 10;"/>
    </g>
    <g>
      <polygon points="416.86 52.18 470.43 69.97 462.89 81.73 574.35 106.55 495.31 69.45 503.18 57.17 457.02 42.99 464.89 30.71 354.1 1.64 425.65 38.46 416.86 52.18" style="fill: none; stroke: #231f20; stroke-miterlimit: 10;"/>
      <polygon points="511.59 160.18 458.03 177.98 465.56 189.73 354.1 214.56 433.14 177.46 425.28 165.18 471.43 151 463.57 138.72 574.35 109.65 502.8 146.47 511.59 160.18" style="fill: none; stroke: #231f20; stroke-miterlimit: 10;"/>
    </g>
  </g>
</svg>