<?xml version="1.0" encoding="UTF-8"?>
<svg id="Layer_2" data-name="Layer 2" xmlns="http://www.w3.org/2000/svg" xmlns:xlink="http://www.w3.org/1999/xlink" viewBox="0 0 574.34 216.45">
  <defs>
    <clipPath id="clippath">
      <rect width="570.42" height="38.37" style="fill: none;"/>
    </clipPath>
    <clipPath id="clippath-1">
      <rect y="178.08" width="570.42" height="38.37" style="fill: none;"/>
    </clipPath>
    <clipPath id="clippath-2">
      <rect width="38.39" height="170.17" style="fill: none;"/>
    </clipPath>
    <clipPath id="clippath-3">
      <rect x="535.95" width="38.39" height="170.17" style="fill: none;"/>
    </clipPath>
  </defs>
  <g id="Layer_1-2" data-name="Layer 1">
    <g>
      <g style="clip-path: url(#clippath);">
        <g>
          <polygon points="16.66 1.62 20.22 12.6 31.77 12.6 22.43 19.39 26 30.37 16.66 23.59 7.31 30.37 10.88 19.39 1.54 12.6 13.09 12.6 16.66 1.62" style="fill: none; stroke: #231f20; stroke-miterlimit: 10;"/>
          <polygon points="57.89 1.62 61.45 12.6 73 12.6 63.66 19.39 67.23 30.37 57.89 23.59 48.54 30.37 52.11 19.39 42.77 12.6 54.32 12.6 57.89 1.62" style="fill: none; stroke: #231f20; stroke-miterlimit: 10;"/>
          <polygon points="99.12 1.62 102.68 12.6 114.23 12.6 104.89 19.39 108.46 30.37 99.12 23.59 89.77 30.37 93.34 19.39 84 12.6 95.55 12.6 99.12 1.62" style="fill: none; stroke: #231f20; stroke-miterlimit: 10;"/>
          <polygon points="140.35 1.62 143.91 12.6 155.46 12.6 146.12 19.39 149.69 30.37 140.35 23.59 131 30.37 134.57 19.39 125.23 12.6 136.78 12.6 140.35 1.62" style="fill: none; stroke: #231f20; stroke-miterlimit: 10;"/>
          <polygon points="181.58 1.62 185.15 12.6 196.69 12.6 187.35 19.39 190.92 30.37 181.58 23.59 172.23 30.37 175.8 19.39 166.46 12.6 178.01 12.6 181.58 1.62" style="fill: none; stroke: #231f20; stroke-miterlimit: 10;"/>
          <polygon points="222.81 1.62 226.38 12.6 237.92 12.6 228.58 19.39 232.15 30.37 222.81 23.59 213.46 30.37 217.03 19.39 207.69 12.6 219.24 12.6 222.81 1.62" style="fill: none; stroke: #231f20; stroke-miterlimit: 10;"/>
          <polygon points="264.04 1.62 267.61 12.6 279.15 12.6 269.81 19.39 273.38 30.37 264.04 23.59 254.69 30.37 258.26 19.39 248.92 12.6 260.47 12.6 264.04 1.62" style="fill: none; stroke: #231f20; stroke-miterlimit: 10;"/>
          <polygon points="305.27 1.62 308.84 12.6 320.38 12.6 311.04 19.39 314.61 30.37 305.27 23.59 295.92 30.37 299.49 19.39 290.15 12.6 301.7 12.6 305.27 1.62" style="fill: none; stroke: #231f20; stroke-miterlimit: 10;"/>
          <polygon points="346.5 1.62 350.07 12.6 361.61 12.6 352.27 19.39 355.84 30.37 346.5 23.59 337.16 30.37 340.72 19.39 331.38 12.6 342.93 12.6 346.5 1.62" style="fill: none; stroke: #231f20; stroke-miterlimit: 10;"/>
          <polygon points="387.73 1.62 391.3 12.6 402.84 12.6 393.5 19.39 397.07 30.37 387.73 23.59 378.39 30.37 381.95 19.39 372.61 12.6 384.16 12.6 387.73 1.62" style="fill: none; stroke: #231f20; stroke-miterlimit: 10;"/>
          <polygon points="428.96 1.62 432.53 12.6 444.07 12.6 434.73 19.39 438.3 30.37 428.96 23.59 419.62 30.37 423.18 19.39 413.84 12.6 425.39 12.6 428.96 1.62" style="fill: none; stroke: #231f20; stroke-miterlimit: 10;"/>
          <polygon points="470.19 1.62 473.76 12.6 485.3 12.6 475.96 19.39 479.53 30.37 470.19 23.59 460.85 30.37 464.41 19.39 455.07 12.6 466.62 12.6 470.19 1.62" style="fill: none; stroke: #231f20; stroke-miterlimit: 10;"/>
          <polygon points="511.42 1.62 514.99 12.6 526.53 12.6 517.19 19.39 520.76 30.37 511.42 23.59 502.08 30.37 505.64 19.39 496.3 12.6 507.85 12.6 511.42 1.62" style="fill: none; stroke: #231f20; stroke-miterlimit: 10;"/>
          <polygon points="552.65 1.62 556.22 12.6 567.77 12.6 558.42 19.39 561.99 30.37 552.65 23.59 543.31 30.37 546.87 19.39 537.53 12.6 549.08 12.6 552.65 1.62" style="fill: none; stroke: #231f20; stroke-miterlimit: 10;"/>
        </g>
      </g>
      <g style="clip-path: url(#clippath-1);">
        <g>
          <polygon points="16.66 179.7 20.22 190.68 31.77 190.68 22.43 197.47 26 208.45 16.66 201.67 7.31 208.45 10.88 197.47 1.54 190.68 13.09 190.68 16.66 179.7" style="fill: none; stroke: #231f20; stroke-miterlimit: 10;"/>
          <polygon points="57.89 179.7 61.45 190.68 73 190.68 63.66 197.47 67.23 208.45 57.89 201.67 48.54 208.45 52.11 197.47 42.77 190.68 54.32 190.68 57.89 179.7" style="fill: none; stroke: #231f20; stroke-miterlimit: 10;"/>
          <polygon points="99.12 179.7 102.68 190.68 114.23 190.68 104.89 197.47 108.46 208.45 99.12 201.67 89.77 208.45 93.34 197.47 84 190.68 95.55 190.68 99.12 179.7" style="fill: none; stroke: #231f20; stroke-miterlimit: 10;"/>
          <polygon points="140.35 179.7 143.91 190.68 155.46 190.68 146.12 197.47 149.69 208.45 140.35 201.67 131 208.45 134.57 197.47 125.23 190.68 136.78 190.68 140.35 179.7" style="fill: none; stroke: #231f20; stroke-miterlimit: 10;"/>
          <polygon points="181.58 179.7 185.15 190.68 196.69 190.68 187.35 197.47 190.92 208.45 181.58 201.67 172.23 208.45 175.8 197.47 166.46 190.68 178.01 190.68 181.58 179.7" style="fill: none; stroke: #231f20; stroke-miterlimit: 10;"/>
          <polygon points="222.81 179.7 226.38 190.68 237.92 190.68 228.58 197.47 232.15 208.45 222.81 201.67 213.46 208.45 217.03 197.47 207.69 190.68 219.24 190.68 222.81 179.7" style="fill: none; stroke: #231f20; stroke-miterlimit: 10;"/>
          <polygon points="264.04 179.7 267.61 190.68 279.15 190.68 269.81 197.47 273.38 208.45 264.04 201.67 254.69 208.45 258.26 197.47 248.92 190.68 260.47 190.68 264.04 179.7" style="fill: none; stroke: #231f20; stroke-miterlimit: 10;"/>
          <polygon points="305.27 179.7 308.84 190.68 320.38 190.68 311.04 197.47 314.61 208.45 305.27 201.67 295.92 208.45 299.49 197.47 290.15 190.68 301.7 190.68 305.27 179.7" style="fill: none; stroke: #231f20; stroke-miterlimit: 10;"/>
          <polygon points="346.5 179.7 350.07 190.68 361.61 190.68 352.27 197.47 355.84 208.45 346.5 201.67 337.16 208.45 340.72 197.47 331.38 190.68 342.93 190.68 346.5 179.7" style="fill: none; stroke: #231f20; stroke-miterlimit: 10;"/>
          <polygon points="387.73 179.7 391.3 190.68 402.84 190.68 393.5 197.47 397.07 208.45 387.73 201.67 378.39 208.45 381.95 197.47 372.61 190.68 384.16 190.68 387.73 179.7" style="fill: none; stroke: #231f20; stroke-miterlimit: 10;"/>
          <polygon points="428.96 179.7 432.53 190.68 444.07 190.68 434.73 197.47 438.3 208.45 428.96 201.67 419.62 208.45 423.18 197.47 413.84 190.68 425.39 190.68 428.96 179.7" style="fill: none; stroke: #231f20; stroke-miterlimit: 10;"/>
          <polygon points="470.19 179.7 473.76 190.68 485.3 190.68 475.96 197.47 479.53 208.45 470.19 201.67 460.85 208.45 464.41 197.47 455.07 190.68 466.62 190.68 470.19 179.7" style="fill: none; stroke: #231f20; stroke-miterlimit: 10;"/>
          <polygon points="511.42 179.7 514.99 190.68 526.53 190.68 517.19 197.47 520.76 208.45 511.42 201.67 502.08 208.45 505.64 197.47 496.3 190.68 507.85 190.68 511.42 179.7" style="fill: none; stroke: #231f20; stroke-miterlimit: 10;"/>
          <polygon points="552.65 179.7 556.22 190.68 567.77 190.68 558.42 197.47 561.99 208.45 552.65 201.67 543.31 208.45 546.87 197.47 537.53 190.68 549.08 190.68 552.65 179.7" style="fill: none; stroke: #231f20; stroke-miterlimit: 10;"/>
        </g>
      </g>
      <g style="clip-path: url(#clippath-2);">
        <g>
          <polygon points="16.66 1.62 20.22 12.6 31.77 12.6 22.43 19.39 26 30.37 16.66 23.59 7.31 30.37 10.88 19.39 1.54 12.6 13.09 12.6 16.66 1.62" style="fill: none; stroke: #231f20; stroke-miterlimit: 10;"/>
          <polygon points="16.66 46.12 20.22 57.1 31.77 57.1 22.43 63.89 26 74.87 16.66 68.08 7.31 74.87 10.88 63.89 1.54 57.1 13.09 57.1 16.66 46.12" style="fill: none; stroke: #231f20; stroke-miterlimit: 10;"/>
          <polygon points="16.66 90.61 20.22 101.6 31.77 101.6 22.43 108.38 26 119.37 16.66 112.58 7.31 119.37 10.88 108.38 1.54 101.6 13.09 101.6 16.66 90.61" style="fill: none; stroke: #231f20; stroke-miterlimit: 10;"/>
          <polygon points="16.66 135.11 20.22 146.09 31.77 146.09 22.43 152.88 26 163.86 16.66 157.07 7.31 163.86 10.88 152.88 1.54 146.09 13.09 146.09 16.66 135.11" style="fill: none; stroke: #231f20; stroke-miterlimit: 10;"/>
        </g>
      </g>
      <g style="clip-path: url(#clippath-3);">
        <g>
          <g id="_Grid_Repeat_" data-name="&amp;lt;Grid Repeat&amp;gt;">
            <polygon points="552.61 1.62 556.18 12.6 567.73 12.6 558.38 19.39 561.95 30.37 552.61 23.59 543.27 30.37 546.84 19.39 537.49 12.6 549.04 12.6 552.61 1.62" style="fill: none; stroke: #231f20; stroke-miterlimit: 10;"/>
          </g>
          <g id="_Grid_Repeat_1" data-name="&amp;lt;Grid Repeat&amp;gt;1">
            <polygon points="552.61 46.12 556.18 57.1 567.73 57.1 558.38 63.89 561.95 74.87 552.61 68.08 543.27 74.87 546.84 63.89 537.49 57.1 549.04 57.1 552.61 46.12" style="fill: none; stroke: #231f20; stroke-miterlimit: 10;"/>
          </g>
          <g id="_Grid_Repeat_2" data-name="&amp;lt;Grid Repeat&amp;gt;2">
            <polygon points="552.61 90.61 556.18 101.6 567.73 101.6 558.38 108.38 561.95 119.37 552.61 112.58 543.27 119.37 546.84 108.38 537.49 101.6 549.04 101.6 552.61 90.61" style="fill: none; stroke: #231f20; stroke-miterlimit: 10;"/>
          </g>
          <g id="_Grid_Repeat_3" data-name="&amp;lt;Grid Repeat&amp;gt;3">
            <polygon points="552.61 135.11 556.18 146.09 567.73 146.09 558.38 152.88 561.95 163.86 552.61 157.07 543.27 163.86 546.84 152.88 537.49 146.09 549.04 146.09 552.61 135.11" style="fill: none; stroke: #231f20; stroke-miterlimit: 10;"/>
          </g>
        </g>
      </g>
    </g>
  </g>
</svg>